<svg width="512" height="512" viewBox="0 0 512 512" fill="none" xmlns="http://www.w3.org/2000/svg">
<path d="M420 152C422.209 152 424 150.209 424 148V108C424 105.791 422.209 104 420 104H92C89.7909 104 88 105.791 88 108V388C88 390.209 89.7909 392 92 392H420C422.209 392 424 390.209 424 388V348C424 345.791 422.209 344 420 344H140C137.791 344 136 342.209 136 340V276C136 273.791 137.791 272 140 272H420C422.209 272 424 270.209 424 268V228C424 225.791 422.209 224 420 224H140C137.791 224 136 222.209 136 220V156C136 153.791 137.791 152 140 152H420Z" fill="#FF812D"/>
</svg>
